<?xml version="1.0" encoding="iso-8859-1"?>
<!-- Generator: Adobe Illustrator 18.1.1, SVG Export Plug-In . SVG Version: 6.00 Build 0)  -->
<svg version="1.1" id="Capa_1" xmlns="http://www.w3.org/2000/svg" xmlns:xlink="http://www.w3.org/1999/xlink" x="0px" y="0px"
	 viewBox="0 0 471.133 471.133" style="enable-background:new 0 0 471.133 471.133;" xml:space="preserve">
<g>
	<g>
		<path style="fill:#010002;" d="M167.567,177.5c12-2,22-7.833,30-17.5s12.667-20.833,14-33.5c1.333-10,2.167-21,2.5-33s0-26-1-42
			s-4.333-29-10-39s-12.833-14-21.5-12c-36,6-59.667,28-71,66c-10.667,34.667-8,64.333,8,89
			C130.567,174.167,146.9,181.5,167.567,177.5z"/>
		<path style="fill:#010002;" d="M303.566,177.5c27.332,4.667,46.333-8.333,57.001-39c11.332-32,8.666-63.333-8-94
			c-14-24.667-34.669-39.333-62.003-44c-9.334-2-16.668,2-22,12c-5.334,10-8.5,23-9.5,39s-1.5,30-1.5,42s0.666,23,2,33
			c1.332,12.667,6,23.833,14,33.5S291.566,175.5,303.566,177.5z"/>
		<path style="fill:#010002;" d="M125.567,260c0-13.667-4.333-25.5-13-35.5c-8-10-19.667-20.667-35-32s-25.333-15-30-11
			c-10,8.667-15.5,23-16.5,43c-1,20,1.833,38,8.5,54c3.333,9.333,8.833,17,16.5,23s15.833,9,24.5,9c12.667,0,23.333-5,32-15
			S125.567,273.667,125.567,260z"/>
		<path style="fill:#010002;" d="M423.567,181.5c-4.668-4-14.668-0.333-30,11c-15.334,11.333-27,22-35,32s-12,21.833-12,35.5
			s4.332,25.5,13,35.5c8.666,10,19,15,31,15c9.334,0,17.668-3,25-9c7.337-6,12.67-13.667,16-23c6.666-16,9.5-34,8.5-54
			S433.567,190.167,423.567,181.5z"/>
		<path style="fill:#010002;" d="M376.567,360c-6.668-9-18.668-16.167-36-21.5c-8.669-4.667-16.001-10.834-22.001-18.5
			c-6-7.667-9.834-14.167-11.5-19.5c-1.672-5.333-3.838-14.167-6.5-26.5c-2.676-12.333-4.344-20.167-5-23.5
			c-3.334-13.333-10.67-24.333-22.002-33c-11.334-8.667-24-13-38-13s-26.333,4.167-37,12.5s-18,18.833-22,31.5
			c-1.333,5.333-3,13.333-5,24s-3.833,19.167-5.5,25.5s-5.333,13.333-11,21s-13.5,13.833-23.5,18.5c-16.667,6-28.5,13.667-35.5,23
			s-10.5,23.333-10.5,42c0,15.333,5.833,29.833,17.5,43.5c11.667,13.666,25.5,21.5,41.5,23.5c34,4.666,64.333-0.667,91-16
			c26.667,15.333,57,20.666,91,16c16.667-2,30.833-9.834,42.501-23.5c11.666-13.667,17.5-28.167,17.5-43.5
			C386.567,383.166,383.233,369,376.567,360z M295.566,383.5h-39.002v41h-42v-41h-41v-41h41v-41h42v41h39.002V383.5z"/>
	</g>
</g>
<g>
</g>
<g>
</g>
<g>
</g>
<g>
</g>
<g>
</g>
<g>
</g>
<g>
</g>
<g>
</g>
<g>
</g>
<g>
</g>
<g>
</g>
<g>
</g>
<g>
</g>
<g>
</g>
<g>
</g>
</svg>
